<?xml version="1.0" encoding="UTF-8" ?>
<svg height="176" width="144" xmlns="http://www.w3.org/2000/svg">
  <polygon points="103.031088913,16.8077136594 95.4689110868,15.9057898708 77.4067332603,47.1903995616 81.9689110868,53.2884757729 89.5310889132,54.1903995616 107.59326674,22.9057898708" style="fill:#09c;" />
<polygon points="91.0621778265,48.0384757729 88.0621778265,41.0384757729 51.9378221735,41.0384757729 48.9378221735,48.0384757729 51.9378221735,55.0384757729 88.0621778265,55.0384757729" style="fill:#09c;" />
<polygon points="81.9689110868,42.7884757729 77.4067332603,48.8865519843 95.4689110868,80.1711616751 103.031088913,79.2692378865 107.59326674,73.1711616751 89.5310889132,41.8865519843" style="fill:#09c;" />
<polygon points="58.0310889132,42.7884757729 50.4689110868,41.8865519843 32.4067332603,73.1711616751 36.9689110868,79.2692378865 44.5310889132,80.1711616751 62.5932667397,48.8865519843" style="fill:#09c;" />
<polygon points="103.031088913,68.7692378865 95.4689110868,67.8673140978 77.4067332603,99.1519237886 81.9689110868,105.25 89.5310889132,106.151923789 107.59326674,74.8673140978" style="fill:#09c;" />
<polygon points="36.9689110868,68.7692378865 32.4067332603,74.8673140978 50.4689110868,106.151923789 58.0310889132,105.25 62.5932667397,99.1519237886 44.5310889132,67.8673140978" style="fill:#09c;" />
<polygon points="91.0621778265,100.0 88.0621778265,93.0 51.9378221735,93.0 48.9378221735,100.0 51.9378221735,107.0 88.0621778265,107.0" style="fill:#09c;" />
<polygon points="81.9689110868,94.75 77.4067332603,100.848076211 95.4689110868,132.132685902 103.031088913,131.230762114 107.59326674,125.132685902 89.5310889132,93.8480762114" style="fill:#09c;" />
<polygon points="103.031088913,120.730762114 95.4689110868,119.828838325 77.4067332603,151.113448016 81.9689110868,157.211524227 89.5310889132,158.113448016 107.59326674,126.828838325" style="fill:#09c;" />
<polygon points="91.0621778265,151.961524227 88.0621778265,144.961524227 51.9378221735,144.961524227 48.9378221735,151.961524227 51.9378221735,158.961524227 88.0621778265,158.961524227" style="fill:#09c;" />

</svg>
